<svg xmlns="http://www.w3.org/2000/svg" xmlns:xlink="http://www.w3.org/1999/xlink" viewBox="0 0 45 35" version="1.1" x="0px" y="0px"><title>rewind-f</title><desc>Created with Sketch.</desc><g stroke="none" stroke-width="1" fill="none" fill-rule="evenodd"><g transform="translate(-188.000000, -108.000000)" fill="#000000"><path d="M210,120.833333 L189.503871,108.877258 L189.503871,108.877258 C189.350935,108.788045 189.177055,108.741037 189,108.741037 C188.447715,108.741037 188,109.188752 188,109.741037 L188,109.741037 L188,134.258963 C188,134.436018 188.047008,134.609898 188.136221,134.762834 C188.414501,135.239886 189.026819,135.401022 189.503871,135.122742 L189.503871,135.122742 L210,123.166667 L210,134.258963 C210,134.436018 210.047008,134.609898 210.136221,134.762834 C210.414501,135.239886 211.026819,135.401022 211.503871,135.122742 L211.503871,135.122742 L232.519236,122.863779 C232.66824,122.77686 232.792225,122.652875 232.879144,122.503871 C233.157424,122.026819 232.996288,121.414501 232.519236,121.136221 L211.503871,108.877258 L211.503871,108.877258 C211.350935,108.788045 211.177055,108.741037 211,108.741037 C210.447715,108.741037 210,109.188752 210,109.741037 L210,109.741037 L210,120.833333 Z"/></g></g><text x="0" y="43" fill="#000000" font-size="5px" font-weight="bold" font-family="'Helvetica Neue', Helvetica, Arial-Unicode, Arial, Sans-serif">Created by Yaroslav Samoilov</text><text x="0" y="48" fill="#000000" font-size="5px" font-weight="bold" font-family="'Helvetica Neue', Helvetica, Arial-Unicode, Arial, Sans-serif">from the Noun Project</text></svg>